<svg width="700" height="700" viewBox="0 0 700 700" fill="none" xmlns="http://www.w3.org/2000/svg">
<mask id="mask0_10_534" style="mask-type:alpha" maskUnits="userSpaceOnUse" x="0" y="0" width="700" height="700">
<circle cx="350" cy="350" r="350" fill="#D9D9D9"/>
</mask>
<g mask="url(#mask0_10_534)">
<path d="M829.563 704.7H-129.804V-4.70044H829.563V704.7Z" fill="#009B3A"/>
<path d="M55.3468 352.543L351.009 161.495L648.069 352.087L351.636 544.743L55.3468 352.543Z" fill="#FEDF00"/>
<path d="M477.205 351.983C477.205 422.006 421.128 478.771 351.956 478.771C282.781 478.771 226.705 422.006 226.705 351.983C226.705 281.96 282.781 225.195 351.956 225.195C421.128 225.195 477.205 281.96 477.205 351.983Z" fill="#002776"/>
<path d="M340.361 302.103C426.021 320.348 475.793 371.068 475.793 371.068C474.472 380.945 471.165 391.155 471.165 391.155C416.095 338.426 347.305 324.198 347.305 324.198C286.039 309.258 230.724 320.013 230.724 320.013C232.46 312.857 237.421 300.554 237.421 300.554C237.421 300.554 279.176 292.728 340.361 302.103Z" fill="white"/>
<path d="M249.573 323.982L250.779 327.741H254.682L251.524 330.062L252.73 333.82L249.573 331.497L246.415 333.82L247.622 330.062L244.464 327.741H248.367L249.573 323.982Z" fill="white"/>
<path d="M303.977 352.742L305.028 356.013H308.426L305.676 358.035L306.727 361.305L303.977 359.284L301.229 361.305L302.279 358.035L299.53 356.013H302.927L303.977 352.742Z" fill="white"/>
<path d="M273.054 371.825L273.694 373.816H275.763L274.09 375.049L274.728 377.04L273.054 375.809L271.381 377.04L272.02 375.049L270.345 373.816H272.415L273.054 371.825Z" fill="white"/>
<path d="M260.653 376.994L261.995 381.175H266.337L262.824 383.759L264.166 387.94L260.653 385.356L257.138 387.94L258.481 383.759L254.966 381.175H259.31L260.653 376.994Z" fill="white"/>
<path d="M245.108 389.81L246.099 392.896H249.305L246.711 394.804L247.703 397.891L245.108 395.983L242.515 397.891L243.506 394.804L240.911 392.896H244.118L245.108 389.81Z" fill="white"/>
<path d="M286.731 391.016L287.722 394.102H290.93L288.334 396.01L289.326 399.096L286.731 397.189L284.138 399.096L285.129 396.01L282.535 394.102H285.741L286.731 391.016Z" fill="white"/>
<path d="M282.929 403.738L283.919 406.825H287.125L284.532 408.732L285.522 411.818L282.929 409.91L280.335 411.818L281.326 408.732L278.732 406.825H281.938L282.929 403.738Z" fill="white"/>
<path d="M301.449 414.643L302.558 418.094H306.142L303.242 420.227L304.35 423.679L301.449 421.546L298.549 423.679L299.657 420.227L296.756 418.094H300.341L301.449 414.643Z" fill="white"/>
<path d="M351.555 404.431L352.661 407.883H356.248L353.346 410.016L354.455 413.468L351.555 411.334L348.654 413.468L349.762 410.016L346.862 407.883H350.446L351.555 404.431Z" fill="white"/>
<path d="M366.271 379.49L367.298 382.686H370.619L367.934 384.661L368.956 387.857L366.271 385.882L363.585 387.857L364.612 384.661L361.927 382.686H365.249L366.271 379.49Z" fill="white"/>
<path d="M351.555 367.94L352.579 371.135H355.901L353.216 373.111L354.238 376.307L351.555 374.332L348.869 376.307L349.894 373.111L347.209 371.135H350.528L351.555 367.94Z" fill="white"/>
<path d="M338.906 379.566L339.815 382.397H342.755L340.376 384.147L341.285 386.978L338.906 385.227L336.527 386.978L337.436 384.147L335.056 382.397H337.996L338.906 379.566Z" fill="white"/>
<path d="M345.189 389.727L345.865 391.828H348.046L346.281 393.127L346.956 395.229L345.189 393.93L343.423 395.229L344.098 393.127L342.332 391.828H344.515L345.189 389.727Z" fill="white"/>
<path d="M385.738 343.062L386.412 345.163H388.592L386.827 346.461L387.502 348.563L385.738 347.264L383.968 348.563L384.643 346.461L382.879 345.163H385.063L385.738 343.062Z" fill="white"/>
<path d="M390.534 307.071L391.783 310.963H395.823L392.554 313.368L393.803 317.26L390.534 314.855L387.261 317.26L388.51 313.368L385.241 310.963H389.281L390.534 307.071Z" fill="white"/>
<path d="M439.313 391.27L440.561 395.162H444.606L441.337 397.568L442.586 401.459L439.313 399.054L436.044 401.459L437.293 397.568L434.024 395.162H438.064L439.313 391.27Z" fill="white"/>
<path d="M436.666 413.2L437.712 416.452H441.092L438.358 418.462L439.399 421.714L436.666 419.704L433.937 421.714L434.979 418.462L432.245 416.452H435.625L436.666 413.2Z" fill="white"/>
<path d="M444.442 403.491L445.483 406.743H448.863L446.129 408.753L447.176 412.005L444.442 409.995L441.709 412.005L442.75 408.753L440.017 406.743H443.396L444.442 403.491Z" fill="white"/>
<path d="M456.678 393.949L457.473 396.434H460.057L457.97 397.969L458.765 400.455L456.678 398.918L454.59 400.455L455.386 397.969L453.298 396.434H455.877L456.678 393.949Z" fill="white"/>
<path d="M426.745 420.899L427.545 423.385H430.124L428.036 424.92L428.832 427.406L426.745 425.869L424.657 427.406L425.457 424.92L423.37 423.385H425.949L426.745 420.899Z" fill="white"/>
<path d="M414.345 430.298L415.261 433.148H418.216L415.825 434.909L416.741 437.759L414.345 435.998L411.949 437.759L412.865 434.909L410.469 433.148H413.429L414.345 430.298Z" fill="white"/>
<path d="M413.516 418.547L414.278 420.911H416.731L414.745 422.372L415.502 424.736L413.516 423.274L411.53 424.736L412.291 422.372L410.305 420.911H412.759L413.516 418.547Z" fill="white"/>
<path d="M399.959 423.068L400.716 425.431H403.17L401.184 426.892L401.946 429.255L399.959 427.793L397.973 429.255L398.73 426.892L396.744 425.431H399.198L399.959 423.068Z" fill="white"/>
<path d="M379.287 419.719L380.044 422.083H382.503L380.516 423.543L381.273 425.907L379.287 424.446L377.301 425.907L378.058 423.543L376.072 422.083H378.53L379.287 419.719Z" fill="white"/>
<path d="M414.278 444.18L415.034 446.543H417.493L415.507 448.004L416.264 450.367L414.278 448.907L412.291 450.367L413.048 448.004L411.067 446.543H413.521L414.278 444.18Z" fill="white"/>
<path d="M389.31 433.634L390.231 436.508H393.215L390.8 438.286L391.725 441.161L389.31 439.384L386.895 441.161L387.815 438.286L385.4 436.508H388.384L389.31 433.634Z" fill="white"/>
<path d="M351.936 449.537L352.367 450.877H353.756L352.632 451.705L353.061 453.046L351.936 452.217L350.809 453.046L351.24 451.705L350.113 450.877H351.506L351.936 449.537Z" fill="white"/>
<path d="M239.249 309.45C239.782 311.685 241.617 313.453 244.007 313.103C246.415 312.751 247.381 310.597 246.904 308.213C246.486 306.126 244.775 304.103 242.137 304.488C239.516 304.875 238.703 307.16 239.249 309.45ZM248.535 307.938C249.228 311.558 247.146 313.777 244.162 314.218C241.072 314.676 238.383 312.913 237.602 309.755C236.784 306.447 238.674 303.856 241.968 303.375C245.334 302.883 247.936 304.822 248.535 307.938Z" fill="#009B3A"/>
<path d="M257.436 306.744C257.968 306.695 258.499 306.648 259.031 306.602C260.696 306.459 261.64 305.583 261.475 304.375C261.288 303.01 260.057 302.498 258.378 302.628C257.612 302.695 257.075 302.805 256.831 302.892C257.033 304.176 257.235 305.459 257.436 306.744ZM255.092 302.088C255.872 301.868 257.011 301.682 258.11 301.588C259.811 301.441 260.949 301.624 261.794 302.164C262.478 302.588 262.92 303.288 263.026 304.104C263.211 305.498 262.328 306.495 261.113 306.97C261.115 306.986 261.117 307.001 261.119 307.017C262.088 307.226 262.745 307.942 263.176 309.018C263.763 310.465 264.177 311.466 264.477 311.855C263.951 311.891 263.426 311.929 262.901 311.967C262.67 311.684 262.279 310.793 261.759 309.504C261.201 308.073 260.477 307.572 259.061 307.647C258.573 307.689 258.086 307.732 257.599 307.778C257.839 309.301 258.078 310.825 258.317 312.349C257.81 312.396 257.304 312.445 256.795 312.494C256.228 309.025 255.66 305.556 255.092 302.088Z" fill="#009B3A"/>
<path d="M272.881 310.327C273.275 310.377 273.84 310.372 274.437 310.353C277.701 310.259 279.367 308.615 279.187 305.751C279.044 303.25 277.304 301.666 273.942 301.761C273.121 301.784 272.507 301.87 272.096 301.963C272.357 304.751 272.62 307.539 272.881 310.327ZM270.41 301.019C271.367 300.853 272.512 300.716 273.776 300.678C276.067 300.612 277.73 301.045 278.861 301.897C280.01 302.75 280.713 303.974 280.815 305.69C280.915 307.421 280.394 308.836 279.351 309.826C278.306 310.83 276.526 311.391 274.235 311.464C273.151 311.499 272.234 311.485 271.457 311.439C271.107 307.966 270.759 304.493 270.41 301.019Z" fill="#009B3A"/>
<path d="M294.456 306.539C292.899 306.47 291.34 306.414 289.781 306.371C289.809 307.644 289.836 308.918 289.865 310.192C291.575 310.239 293.283 310.302 294.991 310.382C294.991 310.764 294.991 311.147 294.991 311.529C292.786 311.425 290.577 311.35 288.368 311.302C288.268 307.769 288.168 304.235 288.068 300.702C290.286 300.75 292.502 300.826 294.717 300.927C294.718 301.309 294.718 301.691 294.718 302.074C293.041 301.997 291.362 301.935 289.683 301.889C289.707 303.006 289.732 304.122 289.756 305.238C291.322 305.281 292.888 305.338 294.454 305.407C294.455 305.785 294.455 306.163 294.456 306.539Z" fill="#009B3A"/>
<path d="M312.415 308.246C312.436 306.768 312.455 304.991 312.568 303.681C312.549 303.68 312.533 303.677 312.513 303.675C312.011 304.864 311.415 306.122 310.716 307.514C309.898 309.144 309.097 310.779 308.31 312.418C307.927 312.38 307.545 312.345 307.162 312.309C306.617 310.576 306.058 308.845 305.485 307.113C304.981 305.577 304.549 304.174 304.254 302.892C304.241 302.891 304.23 302.89 304.217 302.889C304.129 304.203 303.977 305.966 303.81 307.541C303.647 309.043 303.487 310.545 303.328 312.047C302.847 312.01 302.364 311.973 301.882 311.938C302.259 308.435 302.647 304.931 303.049 301.43C303.723 301.482 304.397 301.534 305.071 301.59C305.697 303.351 306.31 305.113 306.908 306.875C307.341 308.22 307.685 309.416 307.924 310.541C307.941 310.542 307.958 310.544 307.976 310.545C308.333 309.508 308.82 308.39 309.435 307.114C310.249 305.485 311.079 303.862 311.923 302.241C312.595 302.314 313.265 302.387 313.937 302.464C313.917 306.001 313.888 309.537 313.846 313.072C313.355 313.015 312.863 312.959 312.371 312.903C312.388 311.351 312.402 309.799 312.415 308.246Z" fill="#009B3A"/>
<path d="M337.036 311.779C335.511 311.47 333.981 311.174 332.452 310.891C332.253 312.14 332.053 313.39 331.854 314.64C333.533 314.95 335.209 315.277 336.881 315.619C336.813 315.993 336.746 316.366 336.677 316.74C334.517 316.298 332.351 315.883 330.18 315.493C330.709 312.023 331.24 308.553 331.771 305.083C333.949 305.474 336.124 305.89 338.293 306.331C338.225 306.705 338.158 307.079 338.09 307.453C336.448 307.118 334.801 306.799 333.152 306.493C332.977 307.589 332.803 308.684 332.628 309.779C334.167 310.064 335.703 310.362 337.235 310.672C337.169 311.041 337.104 311.41 337.036 311.779Z" fill="#009B3A"/>
<path d="M355.202 315.691C355.51 315.856 355.915 316.001 356.412 316.139C358.215 316.641 359.526 316.195 359.921 314.799C360.302 313.465 359.382 312.497 357.699 312.029C357.034 311.844 356.513 311.75 356.233 311.739C355.891 313.057 355.549 314.374 355.202 315.691ZM354.951 310.374C355.722 310.467 356.711 310.636 357.945 310.98C359.459 311.401 360.476 312.02 361.026 312.764C361.537 313.433 361.705 314.282 361.445 315.179C361.18 316.093 360.669 316.719 359.931 317.075C358.933 317.579 357.55 317.587 356.098 317.183C355.65 317.059 355.245 316.932 354.922 316.763C354.565 318.121 354.209 319.478 353.857 320.837C353.37 320.702 352.878 320.571 352.391 320.441C353.244 317.085 354.098 313.73 354.951 310.374Z" fill="#009B3A"/>
<path d="M369.51 319.727C370.012 319.894 370.518 320.062 371.019 320.231C372.596 320.763 373.849 320.361 374.249 319.228C374.698 317.949 373.811 317.011 372.229 316.462C371.511 316.219 370.971 316.106 370.711 316.085C370.311 317.299 369.91 318.513 369.51 319.727ZM369.501 314.688C370.306 314.803 371.419 315.089 372.461 315.438C374.071 315.98 375.021 316.591 375.546 317.402C375.97 318.047 376.057 318.838 375.782 319.601C375.315 320.908 374.061 321.438 372.74 321.379C372.736 321.393 372.731 321.407 372.726 321.423C373.512 321.991 373.782 322.88 373.685 324.002C373.56 325.513 373.483 326.56 373.574 327.024C373.083 326.848 372.591 326.674 372.094 326.501C372.012 326.158 372.061 325.218 372.176 323.873C372.321 322.388 371.892 321.66 370.571 321.167C370.108 321.012 369.65 320.858 369.187 320.705C368.71 322.147 368.238 323.587 367.76 325.028C367.278 324.87 366.801 324.711 366.319 324.556C367.379 321.266 368.44 317.976 369.501 314.688Z" fill="#009B3A"/>
<path d="M382.946 324.971C382.122 327.061 382.657 329.421 384.879 330.316C387.116 331.224 389.17 329.946 390.129 327.76C390.968 325.848 390.674 323.344 388.22 322.349C385.781 321.365 383.795 322.829 382.946 324.971ZM391.667 328.345C390.187 331.647 387.145 332.429 384.373 331.306C381.5 330.145 380.237 327.372 381.384 324.403C382.585 321.29 385.656 320.114 388.717 321.354C391.846 322.624 392.945 325.5 391.667 328.345Z" fill="#009B3A"/>
<path d="M404.404 339.64C403.686 339.528 402.317 339.246 400.885 338.555C399.275 337.778 398.132 336.793 397.51 335.421C396.966 334.206 396.99 332.675 397.698 331.195C399.058 328.371 402.346 327.331 406.087 329.138C407.369 329.76 408.247 330.494 408.618 330.923C408.329 331.192 408.044 331.463 407.755 331.732C407.287 331.22 406.646 330.678 405.532 330.137C402.833 328.831 400.364 329.455 399.222 331.827C398.055 334.232 399.014 336.401 401.492 337.599C402.389 338.035 403.064 338.227 403.45 338.244C403.937 337.316 404.424 336.389 404.906 335.461C404.178 335.102 403.445 334.744 402.712 334.391C402.876 334.066 403.04 333.741 403.209 333.417C404.399 333.993 405.59 334.577 406.776 335.169C405.986 336.66 405.195 338.15 404.404 339.64Z" fill="#009B3A"/>
<path d="M415.078 339.421C415.545 339.674 416.008 339.929 416.476 340.186C417.937 340.989 419.272 340.828 419.899 339.799C420.607 338.637 419.913 337.56 418.448 336.739C417.778 336.372 417.267 336.162 417.011 336.095C416.365 337.204 415.719 338.313 415.078 339.421ZM416.085 334.516C416.866 334.774 417.922 335.256 418.886 335.784C420.381 336.603 421.2 337.373 421.557 338.258C421.856 338.962 421.779 339.751 421.35 340.441C420.622 341.629 419.262 341.913 417.961 341.615C417.951 341.629 417.941 341.643 417.937 341.656C418.602 342.352 418.694 343.267 418.371 344.342C417.941 345.789 417.652 346.793 417.647 347.262C417.194 347 416.736 346.74 416.278 346.483C416.264 346.134 416.505 345.228 416.89 343.94C417.334 342.521 417.054 341.735 415.844 341.014C415.415 340.78 414.986 340.546 414.557 340.313C413.791 341.629 413.024 342.945 412.262 344.26C411.814 344.017 411.366 343.776 410.917 343.537C412.643 340.53 414.364 337.523 416.085 334.516Z" fill="#009B3A"/>
<path d="M431.715 349.987C430.394 349.145 429.068 348.314 427.733 347.495C427.029 348.549 426.32 349.604 425.616 350.659C427.077 351.558 428.533 352.47 429.979 353.398C429.758 353.71 429.541 354.023 429.319 354.335C427.453 353.138 425.573 351.964 423.678 350.814C425.616 347.876 427.554 344.938 429.492 342C431.397 343.155 433.286 344.332 435.162 345.531C434.94 345.844 434.723 346.158 434.506 346.469C433.084 345.56 431.657 344.665 430.22 343.782C429.598 344.707 428.981 345.631 428.364 346.556C429.7 347.38 431.035 348.214 432.361 349.061C432.144 349.371 431.932 349.679 431.715 349.987Z" fill="#009B3A"/>
<path d="M436.198 356.882C436.545 357.571 437.182 358.389 438.054 358.993C439.346 359.891 440.552 359.839 441.212 358.998C441.82 358.22 441.646 357.4 440.638 356.029C439.395 354.417 438.908 353.016 439.8 351.818C440.783 350.494 442.846 350.405 444.823 351.788C445.864 352.516 446.457 353.247 446.742 353.777C446.39 353.984 446.043 354.192 445.691 354.399C445.484 354.017 445.001 353.293 444.085 352.651C442.707 351.688 441.651 352.017 441.217 352.593C440.619 353.383 440.942 354.192 441.974 355.598C443.237 357.326 443.536 358.613 442.572 359.831C441.55 361.112 439.573 361.422 437.283 359.831C436.343 359.18 435.49 358.239 435.191 357.582C435.528 357.348 435.861 357.114 436.198 356.882Z" fill="#009B3A"/>
<path d="M447.619 365.074C447.928 365.781 448.521 366.633 449.364 367.283C450.608 368.247 451.818 368.266 452.532 367.461C453.192 366.719 453.062 365.89 452.131 364.469C450.97 362.792 450.56 361.364 451.524 360.22C452.585 358.955 454.662 358.976 456.572 360.466C457.579 361.249 458.129 362.014 458.384 362.556C458.023 362.743 457.661 362.931 457.295 363.119C457.107 362.727 456.668 361.978 455.786 361.288C454.45 360.25 453.375 360.521 452.903 361.073C452.257 361.827 452.536 362.65 453.491 364.111C454.662 365.905 454.894 367.206 453.853 368.368C452.749 369.59 450.748 369.791 448.535 368.077C447.634 367.376 446.828 366.389 446.568 365.719C446.915 365.503 447.267 365.288 447.619 365.074Z" fill="#009B3A"/>
<path d="M461.995 372.04C460.419 373.687 460.067 376.049 461.894 377.649C463.726 379.262 466.199 378.794 467.935 377.105C469.458 375.629 470.094 373.207 468.084 371.439C466.079 369.684 463.61 370.351 461.995 372.04ZM469.217 378.182C466.556 380.723 463.316 380.385 461.036 378.389C458.674 376.32 458.476 373.326 460.689 370.977C463.003 368.515 466.416 368.483 468.928 370.69C471.497 372.945 471.507 375.993 469.217 378.182Z" fill="#009B3A"/>
</g>
</svg>
