<svg width="700" height="700" viewBox="0 0 700 700" fill="none" xmlns="http://www.w3.org/2000/svg">
<mask id="mask0_2002_13" style="mask-type:alpha" maskUnits="userSpaceOnUse" x="0" y="0" width="700" height="700">
<circle cx="350" cy="350" r="350" fill="#D9D9D9"/>
</mask>
<g mask="url(#mask0_2002_13)">
<path d="M54.8913 0H951.571C981.843 0.182292 1006.46 24.974 1006.46 55.2344V644.583C1006.46 674.844 981.843 699.635 951.571 699.818L54.7089 700C24.619 699.635 0 674.844 0 644.766V55.2344C0 24.974 24.619 0.182292 54.8913 0Z" fill="#DE2910"/>
<path d="M153.185 70L215.006 259.948L53.25 142.552H253.12L91.3639 259.948L153.185 70Z" fill="#FFDE00"/>
<path d="M341.931 37.7345L336.096 104.089L301.811 47.0314L363.085 73.0991L298.164 88.047L341.931 37.7345Z" fill="#FFDE00"/>
<path d="M423.447 115.573L392.263 174.453L382.78 108.646L429.283 156.406L363.632 144.922L423.447 115.573Z" fill="#FFDE00"/>
<path d="M431.106 232.969L378.768 273.984L397.004 210L419.8 272.526L364.544 235.339L431.106 232.969Z" fill="#FFDE00"/>
<path d="M340.654 282.188L337.554 348.724L300.899 293.125L363.267 316.641L299.075 334.323L340.654 282.188Z" fill="#FFDE00"/>
</g>
</svg>
