<svg width="700" height="700" viewBox="0 0 700 700" fill="none" xmlns="http://www.w3.org/2000/svg">
<mask id="mask0_11_541" style="mask-type:alpha" maskUnits="userSpaceOnUse" x="0" y="0" width="700" height="700">
<circle cx="350" cy="350" r="350" fill="#D9D9D9"/>
</mask>
<g mask="url(#mask0_11_541)">
<path d="M764.48 708.437H-64.6875V-8.4375H764.48V708.437Z" fill="white"/>
<path d="M350.877 240.951C307.571 240.951 270.138 266.057 252.34 302.498C248.292 318.145 246.094 346.525 274.701 365.453C315.985 392.769 347.199 356.108 352.954 345.9C358.708 335.693 386.037 316.86 419.121 331.093C451.087 344.845 455.658 379.665 444.512 407.42C454.633 390.828 460.467 371.335 460.467 350.482C460.467 289.99 411.4 240.951 350.877 240.951Z" fill="#C60C30"/>
<path d="M419.121 331.093C386.037 316.86 358.708 335.693 352.954 345.9C347.199 356.108 315.985 392.769 274.701 365.453C246.094 346.525 248.292 318.145 252.34 302.498C245.261 316.989 241.285 333.27 241.285 350.482C241.285 410.973 290.351 460.012 350.877 460.012C390.533 460.012 425.271 438.955 444.512 407.42C455.658 379.665 451.087 344.845 419.121 331.093Z" fill="#003478"/>
<path d="M136.464 274.072L121.761 264.084L183.419 173.429L198.121 183.417L136.464 274.072Z" fill="#231F20"/>
<path d="M159.258 289.26L144.556 279.271L206.213 188.617L220.914 198.605L159.258 289.26Z" fill="#231F20"/>
<path d="M182.558 304.447L167.857 294.459L229.514 203.804L244.215 213.792L182.558 304.447Z" fill="#231F20"/>
<path d="M499.533 245.545L484.771 255.444L456.862 213.869L471.625 203.97L499.533 245.545Z" fill="#231F20"/>
<path d="M532.121 295.01L517.358 304.908L489.45 263.335L504.212 253.437L532.121 295.01Z" fill="#231F20"/>
<path d="M555.342 279.541L540.579 289.44L479.475 198.411L494.237 188.513L555.342 279.541Z" fill="#231F20"/>
<path d="M545.5 214.988L530.737 224.887L502.275 182.484L517.038 172.585L545.5 214.988Z" fill="#231F20"/>
<path d="M577.913 264.279L563.154 274.177L535.229 232.579L549.992 222.681L577.913 264.279Z" fill="#231F20"/>
<path d="M197.597 516.853L182.833 526.752L122.783 437.29L137.546 427.392L197.597 516.853Z" fill="#231F20"/>
<path d="M243.435 486.242L228.671 496.141L168.621 406.68L183.384 396.782L243.435 486.242Z" fill="#231F20"/>
<path d="M188.193 452.995L173.43 462.893L144.967 420.491L159.731 410.592L188.193 452.995Z" fill="#231F20"/>
<path d="M220.608 502.286L205.844 512.184L177.921 470.586L192.684 460.687L220.608 502.286Z" fill="#231F20"/>
<path d="M455.579 487.052L470.279 497.04L498.708 455.24L483.862 445.462L455.579 487.052Z" fill="#231F20"/>
<path d="M531.937 406.386L517.238 396.397L489.125 437.729L503.971 447.507L531.937 406.386Z" fill="#231F20"/>
<path d="M554.729 421.573L540.029 411.585L512 452.795L526.846 462.574L554.729 421.573Z" fill="#231F20"/>
<path d="M478.371 502.24L493.075 512.228L521.587 470.307L506.742 460.53L478.371 502.24Z" fill="#231F20"/>
<path d="M578.033 436.761L563.329 426.772L535.225 468.093L550.071 477.871L578.033 436.761Z" fill="#231F20"/>
<path d="M501.671 517.428L516.375 527.416L544.813 485.604L529.967 475.826L501.671 517.428Z" fill="#231F20"/>
</g>
</svg>
