<svg width="700" height="700" viewBox="0 0 700 700" fill="none" xmlns="http://www.w3.org/2000/svg">
<mask id="mask0_1_3" style="mask-type:alpha" maskUnits="userSpaceOnUse" x="0" y="0" width="700" height="700">
<circle cx="350" cy="350" r="350" fill="#D9D9D9"/>
</mask>
<g mask="url(#mask0_1_3)">
<path d="M1013.17 697.413H-313.477V2.62117H1013.17V697.413Z" fill="white"/>
<path d="M1012.07 54.9686H-313.464V0.00697708H1012.07V54.9686Z" fill="#B22234"/>
<path d="M1012.07 162.473H-313.464V107.513H1012.07V162.473Z" fill="#B22234"/>
<path d="M1012.07 269.979H-313.464V215.018H1012.07V269.979Z" fill="#B22234"/>
<path d="M1012.07 377.485H-313.464V322.523H1012.07V377.485Z" fill="#B22234"/>
<path d="M1012.07 484.99H-313.464V430.028H1012.07V484.99Z" fill="#B22234"/>
<path d="M1012.07 592.495H-313.464V537.534H1012.07V592.495Z" fill="#B22234"/>
<path d="M1012.07 700H-313.464V645.039H1012.07V700Z" fill="#B22234"/>
<path d="M215.909 377.499H-313.5V0H215.909V377.499Z" fill="#3C3B6E"/>
<path d="M-268.472 14.4533L-263.518 29.8667H-247.486L-260.457 39.3887L-255.501 54.7987L-268.472 45.2753L-281.443 54.7987L-276.489 39.3887L-289.46 29.8667H-273.427L-268.472 14.4533Z" fill="white"/>
<path d="M-224.839 53.19L-219.885 68.6H-203.852L-216.822 78.1233L-211.868 93.5327L-224.839 84.0101L-237.809 93.5327L-232.855 78.1233L-245.825 68.6H-229.792L-224.839 53.19Z" fill="white"/>
<path d="M-224.839 128.871L-219.885 144.281H-203.852L-216.822 153.804L-211.868 169.213L-224.839 159.691L-237.809 169.213L-232.855 153.804L-245.825 144.281H-229.792L-224.839 128.871Z" fill="white"/>
<path d="M-224.839 204.551L-219.885 219.961H-203.852L-216.822 229.485L-211.868 244.894L-224.839 235.371L-237.809 244.894L-232.855 229.485L-245.825 219.961H-229.792L-224.839 204.551Z" fill="white"/>
<path d="M-224.839 280.232L-219.885 295.642H-203.852L-216.822 305.165L-211.868 320.575L-224.839 311.052L-237.809 320.575L-232.855 305.165L-245.825 295.642H-229.792L-224.839 280.232Z" fill="white"/>
<path d="M-136.391 53.19L-131.437 68.6H-115.405L-128.375 78.1233L-123.42 93.5327L-136.391 84.0101L-149.362 93.5327L-144.408 78.1233L-157.379 68.6H-141.346L-136.391 53.19Z" fill="white"/>
<path d="M-136.391 128.871L-131.437 144.281H-115.405L-128.375 153.804L-123.42 169.213L-136.391 159.691L-149.362 169.213L-144.408 153.804L-157.379 144.281H-141.346L-136.391 128.871Z" fill="white"/>
<path d="M-136.391 204.551L-131.437 219.961H-115.405L-128.375 229.485L-123.42 244.894L-136.391 235.371L-149.362 244.894L-144.408 229.485L-157.379 219.961H-141.346L-136.391 204.551Z" fill="white"/>
<path d="M-136.391 280.232L-131.437 295.642H-115.405L-128.375 305.165L-123.42 320.575L-136.391 311.052L-149.362 320.575L-144.408 305.165L-157.379 295.642H-141.346L-136.391 280.232Z" fill="white"/>
<path d="M-47.9433 53.19L-42.9893 68.6H-26.9573L-39.928 78.1233L-34.9727 93.5327L-47.9433 84.0101L-60.914 93.5327L-55.9607 78.1233L-68.9313 68.6H-52.8987L-47.9433 53.19Z" fill="white"/>
<path d="M-47.9433 128.871L-42.9893 144.281H-26.9573L-39.928 153.804L-34.9727 169.213L-47.9433 159.691L-60.914 169.213L-55.9607 153.804L-68.9313 144.281H-52.8987L-47.9433 128.871Z" fill="white"/>
<path d="M-47.9433 204.551L-42.9893 219.961H-26.9573L-39.928 229.485L-34.9727 244.894L-47.9433 235.371L-60.914 244.894L-55.9607 229.485L-68.9313 219.961H-52.8987L-47.9433 204.551Z" fill="white"/>
<path d="M-47.9433 280.232L-42.9893 295.642H-26.9573L-39.928 305.165L-34.9727 320.575L-47.9433 311.052L-60.914 320.575L-55.9607 305.165L-68.9313 295.642H-52.8987L-47.9433 280.232Z" fill="white"/>
<path d="M40.5027 53.19L45.458 68.6H61.4907L48.52 78.1233L53.4733 93.5327L40.5027 84.0101L27.5333 93.5327L32.4873 78.1233L19.5167 68.6H35.5487L40.5027 53.19Z" fill="white"/>
<path d="M40.5027 128.871L45.458 144.281H61.4907L48.52 153.804L53.4733 169.213L40.5027 159.691L27.5333 169.213L32.4873 153.804L19.5167 144.281H35.5487L40.5027 128.871Z" fill="white"/>
<path d="M40.5027 204.551L45.458 219.961H61.4907L48.52 229.485L53.4733 244.894L40.5027 235.371L27.5333 244.894L32.4873 229.485L19.5167 219.961H35.5487L40.5027 204.551Z" fill="white"/>
<path d="M40.5027 280.232L45.458 295.642H61.4907L48.52 305.165L53.4733 320.575L40.5027 311.052L27.5333 320.575L32.4873 305.165L19.5167 295.642H35.5487L40.5027 280.232Z" fill="white"/>
<path d="M128.95 53.19L133.905 68.6H149.937L136.967 78.1233L141.921 93.5327L128.95 84.0101L115.981 93.5327L120.935 78.1233L107.964 68.6H123.997L128.95 53.19Z" fill="white"/>
<path d="M128.95 128.871L133.905 144.281H149.937L136.967 153.804L141.921 169.213L128.95 159.691L115.981 169.213L120.935 153.804L107.964 144.281H123.997L128.95 128.871Z" fill="white"/>
<path d="M128.95 204.551L133.905 219.961H149.937L136.967 229.485L141.921 244.894L128.95 235.371L115.981 244.894L120.935 229.485L107.964 219.961H123.997L128.95 204.551Z" fill="white"/>
<path d="M128.95 280.232L133.905 295.642H149.937L136.967 305.165L141.921 320.575L128.95 311.052L115.981 320.575L120.935 305.165L107.964 295.642H123.997L128.95 280.232Z" fill="white"/>
<path d="M-268.472 90.1367L-263.518 105.546H-247.486L-260.457 115.069L-255.501 130.479L-268.472 120.956L-281.443 130.479L-276.489 115.069L-289.46 105.546H-273.427L-268.472 90.1367Z" fill="white"/>
<path d="M-268.472 165.817L-263.518 181.227H-247.486L-260.457 190.75L-255.501 206.16L-268.472 196.637L-281.443 206.16L-276.489 190.75L-289.46 181.227H-273.427L-268.472 165.817Z" fill="white"/>
<path d="M-268.472 241.498L-263.518 256.907H-247.486L-260.457 266.431L-255.501 281.841L-268.472 272.318L-281.443 281.841L-276.489 266.431L-289.46 256.907H-273.427L-268.472 241.498Z" fill="white"/>
<path d="M-268.472 317.179L-263.518 332.588H-247.486L-260.457 342.111L-255.501 357.521L-268.472 347.999L-281.443 357.521L-276.489 342.111L-289.46 332.588H-273.427L-268.472 317.179Z" fill="white"/>
<path d="M-181.205 14.4533L-176.251 29.8667H-160.217L-173.188 39.3887L-168.234 54.7987L-181.205 45.2753L-194.175 54.7987L-189.221 39.3887L-202.191 29.8667H-186.159L-181.205 14.4533Z" fill="white"/>
<path d="M-181.205 90.1367L-176.251 105.546H-160.217L-173.188 115.069L-168.234 130.479L-181.205 120.956L-194.175 130.479L-189.221 115.069L-202.191 105.546H-186.159L-181.205 90.1367Z" fill="white"/>
<path d="M-181.205 165.817L-176.251 181.227H-160.217L-173.188 190.75L-168.234 206.16L-181.205 196.637L-194.175 206.16L-189.221 190.75L-202.191 181.227H-186.159L-181.205 165.817Z" fill="white"/>
<path d="M-181.205 241.498L-176.251 256.907H-160.217L-173.188 266.431L-168.234 281.841L-181.205 272.318L-194.175 281.841L-189.221 266.431L-202.191 256.907H-186.159L-181.205 241.498Z" fill="white"/>
<path d="M-181.205 317.179L-176.251 332.588H-160.217L-173.188 342.111L-168.234 357.521L-181.205 347.999L-194.175 357.521L-189.221 342.111L-202.191 332.588H-186.159L-181.205 317.179Z" fill="white"/>
<path d="M-91.578 14.4533L-86.6233 29.8667H-70.592L-83.5613 39.3887L-78.6073 54.7987L-91.578 45.2753L-104.548 54.7987L-99.594 39.3887L-112.565 29.8667H-96.532L-91.578 14.4533Z" fill="white"/>
<path d="M-91.578 90.1367L-86.6233 105.546H-70.592L-83.5613 115.069L-78.6073 130.479L-91.578 120.956L-104.548 130.479L-99.594 115.069L-112.565 105.546H-96.532L-91.578 90.1367Z" fill="white"/>
<path d="M-91.578 165.817L-86.6233 181.227H-70.592L-83.5613 190.75L-78.6073 206.16L-91.578 196.637L-104.548 206.16L-99.594 190.75L-112.565 181.227H-96.532L-91.578 165.817Z" fill="white"/>
<path d="M-91.578 241.498L-86.6233 256.907H-70.592L-83.5613 266.431L-78.6073 281.841L-91.578 272.318L-104.548 281.841L-99.594 266.431L-112.565 256.907H-96.532L-91.578 241.498Z" fill="white"/>
<path d="M-91.578 317.179L-86.6233 332.588H-70.592L-83.5613 342.111L-78.6073 357.521L-91.578 347.999L-104.548 357.521L-99.594 342.111L-112.565 332.588H-96.532L-91.578 317.179Z" fill="white"/>
<path d="M-3.72 14.4533L1.23398 29.8667H17.2667L4.29599 39.3887L9.24933 54.7987L-3.72 45.2753L-16.6907 54.7987L-11.7367 39.3887L-24.7073 29.8667H-8.67468L-3.72 14.4533Z" fill="white"/>
<path d="M-3.72 90.1367L1.23398 105.546H17.2667L4.29599 115.069L9.24933 130.479L-3.72 120.956L-16.6907 130.479L-11.7367 115.069L-24.7073 105.546H-8.67468L-3.72 90.1367Z" fill="white"/>
<path d="M-3.72 165.817L1.23398 181.227H17.2667L4.29599 190.75L9.24933 206.16L-3.72 196.637L-16.6907 206.16L-11.7367 190.75L-24.7073 181.227H-8.67468L-3.72 165.817Z" fill="white"/>
<path d="M-3.72 241.498L1.23398 256.907H17.2667L4.29599 266.431L9.24933 281.841L-3.72 272.318L-16.6907 281.841L-11.7367 266.431L-24.7073 256.907H-8.67468L-3.72 241.498Z" fill="white"/>
<path d="M-3.72 317.179L1.23398 332.588H17.2667L4.29599 342.111L9.24933 357.521L-3.72 347.999L-16.6907 357.521L-11.7367 342.111L-24.7073 332.588H-8.67468L-3.72 317.179Z" fill="white"/>
<path d="M84.1373 14.4533L89.0913 29.8667H105.124L92.1533 39.3887L97.1086 54.7987L84.1373 45.2753L71.1666 54.7987L76.1206 39.3887L63.15 29.8667H79.1826L84.1373 14.4533Z" fill="white"/>
<path d="M84.1373 90.1367L89.0913 105.546H105.124L92.1533 115.069L97.1086 130.479L84.1373 120.956L71.1666 130.479L76.1206 115.069L63.15 105.546H79.1826L84.1373 90.1367Z" fill="white"/>
<path d="M84.1373 165.817L89.0913 181.227H105.124L92.1533 190.75L97.1086 206.16L84.1373 196.637L71.1666 206.16L76.1206 190.75L63.15 181.227H79.1826L84.1373 165.817Z" fill="white"/>
<path d="M84.1373 241.498L89.0913 256.907H105.124L92.1533 266.431L97.1086 281.841L84.1373 272.318L71.1666 281.841L76.1206 266.431L63.15 256.907H79.1826L84.1373 241.498Z" fill="white"/>
<path d="M84.1373 317.179L89.0913 332.588H105.124L92.1533 342.111L97.1086 357.521L84.1373 347.999L71.1666 357.521L76.1206 342.111L63.15 332.588H79.1826L84.1373 317.179Z" fill="white"/>
<path d="M173.763 14.4533L178.718 29.8667H194.751L181.779 39.3887L186.733 54.7987L173.763 45.2753L160.793 54.7987L165.747 39.3887L152.777 29.8667H168.809L173.763 14.4533Z" fill="white"/>
<path d="M173.763 90.1367L178.718 105.546H194.751L181.779 115.069L186.733 130.479L173.763 120.956L160.793 130.479L165.747 115.069L152.777 105.546H168.809L173.763 90.1367Z" fill="white"/>
<path d="M173.763 165.817L178.718 181.227H194.751L181.779 190.75L186.733 206.16L173.763 196.637L160.793 206.16L165.747 190.75L152.777 181.227H168.809L173.763 165.817Z" fill="white"/>
<path d="M173.763 241.498L178.718 256.907H194.751L181.779 266.431L186.733 281.841L173.763 272.318L160.793 281.841L165.747 266.431L152.777 256.907H168.809L173.763 241.498Z" fill="white"/>
<path d="M173.763 317.179L178.718 332.588H194.751L181.779 342.111L186.733 357.521L173.763 347.999L160.793 357.521L165.747 342.111L152.777 332.588H168.809L173.763 317.179Z" fill="white"/>
</g>
</svg>
