<?xml version="1.0" encoding="utf-8"?>
<!-- Generator: Adobe Illustrator 24.0.0, SVG Export Plug-In . SVG Version: 6.00 Build 0)  -->
<svg version="1.1" id="Capa_1" xmlns="http://www.w3.org/2000/svg" xmlns:xlink="http://www.w3.org/1999/xlink" x="0px" y="0px"
	 viewBox="0 0 283.5 283.5" style="enable-background:new 0 0 283.5 283.5;" xml:space="preserve">
<style type="text/css">
	.st0{fill:#F15A22;}
</style>
<g>
	<g>
		<g>
			<path class="st0" d="M212.6,187.1c14.2,0.2,26.8-0.1,37.6-0.7l3.7-21.7c-59.3,9.5-112.8,9.6-160.7,0.3
				c-16.9-3.2-32.2-7.6-45.9-12.9c-10-3.9-17.6-7.6-22.8-11.2c28.2,21.5,70.6,35.6,127.4,42.3C171.2,185.4,191.5,186.7,212.6,187.1z
				"/>
		</g>
	</g>
	<g>
		<g>
			<path class="st0" d="M259.9,107.2c-0.5-2-2-3-4.5-3c-4,0-6.5,0-7.5,0.1c-2.6,0.1-4.7,0.5-6.3,1l-2.6,4.8l3.8-1.4
				c2.9-0.8,5.2-1.2,7.1-1c2.2,0.2,3.3,0.8,3.4,2.1c0,1.2-1,2.3-3.1,3.3c-0.9,0.5-2,0.8-3.4,1.1c-1.7,0.2-2.9,0.4-3.8,0.5
				c-3.3,0.5-6,1.6-8.2,3.5c-1.1,1-1.9,2-2.4,3.2c-0.6,1.4-0.8,2.6-0.5,3.7c0.7,2.8,4.2,4,10.4,3.5l3.2-3.7
				c-1.1,0.4-2.3,0.5-3.4,0.5c-2.3,0.1-3.4-0.6-3.5-2.1c-0.1-1.5,0.7-2.8,2.2-3.6c0.8-0.4,2.3-1,4.7-1.6c2.2-0.7,4.1-1.2,5.8-1.7
				l-2,5.5c-1.5,3.8-2.5,5.8-3.2,6.3h7.2c2.8-7.2,4.9-12.1,6-14.8C260.2,111,260.4,108.9,259.9,107.2z"/>
			<path class="st0" d="M217.8,104.3h-6.9c0.5,16.1,0.8,24,1.1,23.8c0.1-0.1,1.4-0.2,3.8-0.1c1.2,0.1,2.4,0.1,3.6,0.1l18.5-23.8
				h-6.9l-13.2,18.5V104.3z"/>
			<path class="st0" d="M211.1,100.8l1.8-4.5h-7.1l-1.5,4.5H211.1z"/>
			<path class="st0" d="M182.5,100.8l1.8-4.5h-7.1l-1.5,4.5H182.5z"/>
			<path class="st0" d="M188.1,104.3h-3.7l-2,5h3.6l-1.1,2.9c-0.8,2.2-1.5,4-2.1,5.5c-1.2,3.1-2,4.9-2.1,5.6
				c-0.5,2.1-0.3,3.6,0.8,4.5c0.8,0.7,2.7,0.9,5.6,0.7c1.5-0.2,2.8-0.4,4.1-0.6l2.5-4.5c-1,0.4-2.3,0.8-3.8,1
				c-1.1,0.2-1.7-0.6-1.8-2.1c-0.2-1.4,0.1-3,0.8-4.8c0.5-1.3,1.2-3.1,2.2-5.2l1.3-2.9h6.4l1.6-4.9H194l2.1-5.3l-6.8,1.5
				L188.1,104.3z"/>
			<path class="st0" d="M168.8,106.7l0.3-1.7c-0.5-0.1-1.2-0.2-2.1-0.4c-1.7-0.2-3.4-0.3-5.1-0.3c-2.3,0-4.3,0.4-5.9,1.3
				c-2.1,1-3.6,2.5-4.6,4.7c-0.7,1.7-0.6,3.4,0.6,5.1c0.6,0.9,2,2.4,4.3,4.3c1,0.9,1.1,2,0.5,3.2c-0.7,1.4-1.9,2.1-3.7,2.2
				c-1.9,0.1-3.6-0.2-5.1-0.8l-1.7-1l-1.1,4.5l2.6,0.7c2,0.5,3.6,0.7,5,0.6c2.6-0.2,4.9-0.7,6.8-1.5c2.9-1.3,4.6-3.3,4.9-6
				c0.3-2.2-0.7-4.2-3-6c-1.2-1-2-1.6-2.2-2c-0.6-0.8-0.8-1.6-0.6-2.4c0.4-1.7,2-2.6,4.6-2.6c2.3,0,4,0.5,5,1.5
				C168.3,109.2,168.6,108,168.8,106.7z"/>
			<path class="st0" d="M174.1,104.3c-0.2,1.3-1.3,4.8-3.3,10.5c-2.2,6.3-4.1,10.7-5.4,13.2h7.1l8.7-23.8H174.1z"/>
			<path class="st0" d="M209.9,104.3h-7.1c-0.2,1.3-1.3,4.8-3.3,10.5c-2.2,6.3-4.1,10.7-5.4,13.2h7.1L209.9,104.3z"/>
			<path class="st0" d="M137.7,104.3c-3.2,0-5.9,0.4-8,1.2c-2.8,1.1-5.2,3.1-7.4,6c-3.1,4-4.3,7.8-3.7,11.4c0.7,4.2,3.9,6.3,9.6,6.3
				c5.7,0,10.3-1.9,13.9-5.7c3-3.2,4.5-6.8,4.6-10.7C146.9,107.1,143.9,104.3,137.7,104.3z M131.5,109.6c1.3-0.6,2.8-0.9,4.5-0.9
				c1.5,0,2.7,0.4,3.4,1.2c0.7,0.8,1,2.3,0.8,4.3c-0.2,2.5-1.3,4.8-3.1,7c-2.2,2.5-4.8,3.8-7.7,3.8c-2.9,0-4.3-1.4-4.6-4.2
				c-0.2-2.5,0.5-4.9,2.2-7.5C128.4,111.6,129.8,110.3,131.5,109.6z"/>
			<path class="st0" d="M100.7,96.3c-0.2,1.4-2.2,7.1-6,17.1c-1.9,5-3.8,9.9-5.7,14.6h7.4c0-0.4,1.2-3.9,3.5-10.5
				c2.6-7.5,4.3-12.8,5-16l6.8,0.1c1.7,0,2.9,0.4,3.3,1.2c0.3,0.7,0.3,1.6-0.3,3c-0.6,1.4-1.6,2.6-3.1,3.6c-1.4,0.8-2.7,1.3-4.1,1.3
				h-3.7l-0.5,4.2l1.7,0.3c1.4,0.2,3,0.3,4.6,0.3c3.1,0,5.9-1.5,8.5-4.5c2.1-2.3,3.4-4.7,4.1-7.1c0.5-1.9,0.2-3.6-1-5.1
				c-1.2-1.6-2.8-2.4-4.8-2.4H100.7z"/>
			<path class="st0" d="M39.3,108.3c1.5-4.1,2.9-8.2,4.2-12h-7.6c-2.3,7.2-5.2,14.6-8.4,22.4c-1.6,3.8-3,7-4.1,9.4h23.3l2.1-4.8
				H33.4C34.3,121.7,36.2,116.7,39.3,108.3z"/>
			<path class="st0" d="M66.7,104.3c-2.6,0.1-4.8,0.5-6.3,1l-2.6,4.8l3.7-1.4c2.9-0.8,5.3-1.2,7.2-1c2.2,0.2,3.3,0.8,3.3,2.1
				c0.1,1.2-1,2.3-3,3.3c-1,0.5-2.1,0.8-3.5,1.1c-1.6,0.2-2.9,0.4-3.8,0.5c-3.3,0.5-6.1,1.6-8.3,3.5c-1.1,1-1.9,2-2.4,3.2
				c-0.7,1.4-0.8,2.6-0.5,3.7c0.7,2.8,4.2,4,10.4,3.5l3.2-3.7c-1.2,0.4-2.3,0.5-3.4,0.5c-2.2,0.1-3.4-0.6-3.4-2.1
				c-0.1-1.5,0.7-2.8,2.2-3.6c0.7-0.4,2.3-1,4.7-1.6c2.1-0.7,4.1-1.2,5.8-1.7l-2.1,5.5c-1.5,3.8-2.5,5.8-3.2,6.3h7.1
				c2.9-7.2,4.9-12.1,6.1-14.8c1-2.3,1.2-4.4,0.7-6c-0.6-2-2-3-4.5-3C70.2,104.3,67.7,104.3,66.7,104.3z"/>
			<path class="st0" d="M196.9,145.6c0.5-1.1,1.1-2.1,1.6-3c-1.4-0.2-3.2-0.3-5.2-0.3c-3.1-0.1-6,1.3-8.5,4.2
				c-1.4,1.5-2,3.2-1.7,4.9c0.2,1.7,0.9,2.5,2.3,2.5c2.5,0,4.6-0.7,6.1-2.2c-1.2,2.4-2.1,4-2.9,4.6c-0.5,0.4-1.7,0.6-3.3,0.7
				c-1.1,0-2.2-0.1-3-0.4l-1-0.4l-0.4,1.9l1,0.4c0.8,0.3,1.8,0.4,2.9,0.4c1.3,0,2.3-0.1,2.8-0.2c1-0.2,1.9-0.6,2.9-1.2
				c1-0.6,1.9-1.7,2.6-3.3c0.7-1.9,1.3-3.2,1.6-3.9C195.1,149.3,195.8,147.8,196.9,145.6z M192.3,144.5c0.7,0,1.3,0,2,0.1
				c-0.8,2-1.6,3.8-2.5,5.2c-0.7,1-1.8,1.6-3.3,1.7c-1.4,0.2-2.2-0.2-2.5-1.1c-0.3-0.7,0-1.7,0.7-2.8c0.6-1,1.4-1.7,2.4-2.4
				C189.8,144.8,190.8,144.5,192.3,144.5z"/>
			<path class="st0" d="M205.2,142.4h-3.7c-0.9,2.4-1.9,4.7-3.1,6.8c-0.8,1.5-1,2.8-0.4,3.7c0.5,0.8,1.6,1.2,3.2,1.2
				c1.3,0,2.5-0.4,3.8-1.3c0.6-0.5,1.1-0.9,1.5-1.3l-0.9,2.2l3.3,0.1c0.2-1.9,0.5-3.4,0.9-4.7c0.2-0.8,0.9-2.1,2-4.1
				c0.6-1,1.1-1.8,1.5-2.6h-3.3l-0.2,1c-0.3,0.9-0.7,2-1.4,3.3c-1.1,2-1.7,3.2-2,3.4c-0.8,1.1-2,1.7-3.3,1.7c-1,0-1.6-0.4-1.7-1.1
				c-0.1-0.6,0-1.5,0.4-2.7c0.3-0.9,1-2.1,2-3.6C204.3,143.6,204.8,143,205.2,142.4z"/>
			<path class="st0" d="M178.3,142.1c-3.2,0-5.6,1.3-7.4,3.9c-0.8,1.1-1.2,2.2-1.5,3.3c-0.2,1.2-0.1,2,0.3,2.8
				c0.5,1.1,1.5,1.7,2.9,1.9c1,0.1,2.5,0.1,4.8-0.2l1.8-2.3c-0.9,0.2-1.9,0.3-2.9,0.4c-2,0.2-3.2,0-3.6-0.6
				c-0.5-0.6-0.5-1.3-0.3-2.2l0.5-1.2l8.8,0.1c0.5-1,0.6-2,0.6-2.9C182.2,143.1,180.9,142.1,178.3,142.1z M174.7,145.3
				c1.2-0.8,2.3-1.3,3.3-1.3c1,0,1.5,0.4,1.6,1.3c0.1,0.4,0,0.8-0.1,1.3l-6.3,0.1L174.7,145.3z"/>
			<path class="st0" d="M169.6,141.3l1.1-2.6c-1.1-0.3-2.4-0.4-3.8-0.3c-2.6,0.1-4.6,1-5.6,2.6c-0.8,1.3-1.1,2.4-0.9,3.2
				c0.2,0.7,1,1.5,2.2,2.4c1,0.8,1.5,1.6,1.4,2.6c0,1.2-1,1.9-2.9,2.2c-1.2,0.2-2.3,0.1-3.2-0.2l-1.1-0.6l-1.1,2.5l2.2,0.5
				c1.7,0.3,3.1,0.3,4.3,0.1c1.4-0.3,2.5-0.9,3.4-1.7c0.9-0.9,1.4-2,1.6-3.3c0.2-0.9-0.5-2-2-3.3c-1.3-1.2-1.9-2.3-1.5-3.2
				c0.4-1.1,1.4-1.7,2.9-1.7C168,140.6,169,140.8,169.6,141.3z"/>
			<path class="st0" d="M244.5,144.2c1,0.1,1.7,0.4,2.2,0.7l1-2.2c-1-0.3-2.1-0.5-3.3-0.5c-2.4-0.1-4.1,0.6-4.9,2
				c-0.6,1.1-0.8,2-0.5,2.6c0.2,0.4,0.6,1,1.4,1.7c0.8,0.7,1.2,1.4,1.1,1.9c-0.1,0.8-0.8,1.3-2.3,1.6c-1,0.2-1.9,0.1-2.6-0.3
				l-0.8-0.5l-0.8,2.2l1.9,0.3c1.4,0.2,2.6,0.2,3.6,0c1.2-0.3,2.2-0.7,2.8-1.3c0.7-0.6,1.2-1.5,1.3-2.5c0.1-0.7-0.3-1.6-1.2-2.4
				c-0.9-0.8-1.2-1.6-0.9-2.3C242.5,144.4,243.3,144.1,244.5,144.2z"/>
			<path class="st0" d="M219.6,142.4h-3.1c-0.1,1.1-0.5,2.3-1.3,3.8c-0.4,0.8-1.1,2-1.9,3.8c-0.9,1.9-1.4,3-1.7,3.6h3.7
				c0.2-1.2,0.4-2.2,0.7-3.1c0.3-0.8,0.8-1.8,1.4-2.8c0.8-1.3,1.6-2.1,2.3-2.5c0.6-0.3,1.4-0.4,2.3-0.3c0.5,0.1,0.8,0.2,1.2,0.3
				l1-2.9c-0.5,0-1.2,0.1-1.9,0.3c-1.4,0.3-2.5,1-3.3,1.9L219.6,142.4z"/>
			<path class="st0" d="M227.6,142.8c-1.1,0.5-2.2,1.3-3.5,2.6c-1.7,1.7-2.4,3.5-2.1,5.5c0.3,2.1,1.6,3.1,4,3.1
				c1.9,0,3.4-0.4,4.8-1.2c1.2-0.7,2.4-2,3.5-3.7c1.1-1.7,1.4-3.3,0.8-4.7c-0.6-1.4-1.7-2.2-3.6-2.2
				C229.8,142.2,228.6,142.4,227.6,142.8z M226.3,146.3c0.9-0.9,1.6-1.5,2.3-1.8c0.5-0.2,1.3-0.3,2.4-0.3c0.7,0,1.1,0.5,1.3,1.4
				c0.2,1,0,1.9-0.5,2.8c-1.3,2.4-3,3.6-4.9,3.6c-1.4,0-2.1-0.7-2.1-2.2C224.9,148.6,225.4,147.4,226.3,146.3z"/>
		</g>
	</g>
</g>
</svg>
